<svg version="1" xmlns="http://www.w3.org/2000/svg" width="952" height="952" viewBox="0 0 714.000000 714.000000"><path d="M359.7 3c-2.6 1.6-5 3-5.2 3-.2 0-5.9 3.2-12.7 7.1-6.7 4-13.6 8-15.3 8.9-1.6.9-13.3 7.7-26 15-12.6 7.3-25 14.4-27.5 15.8-5.9 3.3-35.5 20.4-40 23.1-1.9 1.1-4.1 2.4-4.9 2.7-.7.4-38.7 22.2-84.5 48.5l-83.1 47.8.3 177.3c.3 161.4.4 177.4 1.9 179 .9 1 2 1.8 2.4 1.8.5 0 3.2 1.5 6.1 3.4 2.9 1.8 26 15.8 51.3 31.1 51 30.7 83 50.1 122 73.7 14.3 8.7 28 17 30.5 18.4 2.5 1.5 23.7 14.4 47.3 28.6 23.5 14.2 43.2 25.8 43.7 25.8s16.9-10.2 36.4-22.8c19.6-12.5 36.8-23.4 38.3-24.2 1.6-.8 3-1.7 3.3-2.1.3-.3 2.3-1.6 4.5-2.9 2.2-1.3 4.5-2.8 5-3.3.6-.4 5.3-3.4 10.5-6.7 5.2-3.3 10.2-6.4 11-7 5.2-3.7 17.3-11 18.1-11 .5 0 .9-.4.9-.8 0-.5 1.2-1.5 2.8-2.3 1.5-.7 3.8-2.1 5.1-3.1 1.3-1 2.8-1.5 3.4-1.1.5.3.7.1.3-.5-.3-.6.3-1.3 1.4-1.7 1.1-.3 2.6-1.2 3.2-1.9 2.4-2.2 11.6-7.5 12.2-6.9.3.4.6.2.6-.4 0-1.7 9.8-7.6 11.1-6.7.7.4.9.3.5-.4-.6-1.1 3.1-3.8 4.7-3.4.4.1.7-.2.7-.7 0-.7 11.3-8.2 12.4-8.2.3 0 1.7-1.1 3.2-2.4 1.4-1.3 3.6-2.7 4.8-3.1 1.1-.4 2.3-.9 2.6-1.3 1.5-1.9 7.2-5.1 8-4.6.6.3 1-.1 1-.9 0-.9.5-1.7 1-1.7.6-.1 1.3-.2 1.8-.3.4 0 1.8-1.1 3.2-2.4 1.3-1.2 3.1-2 3.9-1.7.9.3 1.2.3.9-.1-.4-.4 1-1.8 3-3.3 3.6-2.5 5.1-3.4 10.5-6.4 1.2-.6 2.6-1.8 3-2.5.5-.7 1.2-1 1.8-.7.5.4.9.1.9-.6s.3-1 .6-.6c.3.3 1.8-.5 3.2-1.9 1.5-1.3 3.1-2.4 3.5-2.4.5 0 2-.9 3.4-2s3-1.7 3.7-1.3c.6.3.8.3.4-.2-.9-1 4.9-4.8 6.2-4 .5.3 1.2 0 1.6-.6.5-.8.3-.9-.7-.4-2.5 1.5-.4-.3 3.4-2.9 2.1-1.4 4-2.6 4.3-2.6.3 0 1.7-.9 3.1-2 1.4-1.1 3-1.7 3.7-1.3.6.3.8.3.4-.2-1-1 9.2-7.6 10.5-6.8.6.3.7.2.4-.4-.4-.5.4-1.6 1.7-2.3l2.4-1.2-.2-177.8-.1-177.8-14.5-8.9c-7.9-4.8-15.3-9.3-16.2-9.8-1-.6-6.9-4.1-13-7.9-16.5-10.1-120.8-73.6-124-75.5-1.5-.9-7.6-4.6-13.5-8.2-5.9-3.7-26.3-16.1-45.3-27.6-19-11.6-40.5-24.7-47.8-29.2-7.4-4.4-13.7-8.1-14.1-8.1-.4 0-2.8 1.3-5.4 3z"/></svg>