<svg version="1" xmlns="http://www.w3.org/2000/svg" width="1365.333" height="1365.333" viewBox="0 0 1024.000000 1024.000000"><path d="M523.6 31c-3.7 2.2-7 4-7.2 4-.3 0-2.1 1.1-4.2 2.3-2 1.3-5.7 3.5-8.2 4.9-2.5 1.4-8.8 5-14 8-5.2 3-11.5 6.6-14 8-2.5 1.4-10.3 5.9-17.5 10-7.1 4.2-14.6 8.5-16.5 9.5-10.9 6.2-37.1 21.4-40.7 23.6-2.4 1.5-4.5 2.7-4.9 2.7-.4 0-3.4 1.7-6.8 3.7-8 5-8.9 5.5-12.3 7.4-9.9 5.4-15.6 8.7-21.1 12.1-3.4 2.1-6.4 3.8-6.7 3.8-.3 0-3.4 1.8-7 4s-6.7 4-7 4c-.3 0-3.4 1.8-7 4s-6.7 4-7 4c-.2 0-3.7 1.9-7.7 4.3-11.2 6.6-25.2 14.8-36.7 21.3-5.8 3.2-12.1 6.9-14 8.1-2 1.3-4.5 2.7-5.7 3.2-1.2.5-4.3 2.3-7 3.9s-9.4 5.5-14.9 8.7c-5.5 3.2-12.5 7.3-15.7 9.2-3.1 1.8-5.8 3.3-6.1 3.3-.3 0-4.2 2.2-8.6 5-4.4 2.7-8.3 5-8.6 5-.3 0-2.2 1.1-4.3 2.3-2 1.3-6.2 3.8-9.2 5.5-3 1.6-10.6 6-16.9 9.6-6.2 3.6-11.5 6.6-11.7 6.6-.3 0-9.7 5.5-15.4 9-.8.5-3.2 1.8-5.2 2.9-2.1 1.1-5.6 3.2-7.8 4.6l-4 2.5v237.8c0 130.7.3 238.6.6 239.7.5 1.7 24 16.8 41.3 26.6 2.5 1.4 16.9 10.1 31.9 19.2 15 9.2 27.6 16.7 28.1 16.7s1.4.6 2 1.4c.7.8 2.6 2.1 4.4 3 1.8.9 3.9 2.1 4.7 2.6 10.6 6.8 41.2 25 42 25 .5 0 1 .4 1 .9s1.1 1.2 2.5 1.5c1.4.4 2.5 1.1 2.5 1.6 0 .6.4 1 1 1 .5 0 10.9 6.1 23 13.5s22.3 13.5 22.6 13.5c.3 0 2 1.1 3.8 2.5 1.8 1.4 3.6 2.5 3.9 2.5.4 0 10.6 6.1 22.7 13.5s22.4 13.5 23 13.5c.5 0 1 .4 1 .9s.8 1.1 1.8 1.5c.9.3 2.4 1 3.2 1.6 5.9 3.9 46.2 28 47 28 .5 0 1 .3 1 .8 0 .4 1.7 1.6 3.8 2.7 2 1.1 5.5 3.1 7.7 4.4 9.6 5.9 45.2 27.6 47.5 28.8 1.4.8 3.7 2.2 5.2 3.1 31.6 19.5 32 19.6 40.8 13.7 2.9-1.9 5.4-3.5 5.7-3.5.3 0 1.9-1 3.6-2.3 1.7-1.2 3.9-2.7 4.9-3.2 1-.6 7.3-4.6 14-8.9 11.7-7.5 38.2-24.4 43.3-27.6 1.4-.8 8-5 14.7-9.3 6.8-4.3 17.3-11 23.3-14.8 6.1-3.8 14.4-9.1 18.5-11.8 4.1-2.6 13.8-8.7 21.5-13.6 26.4-16.6 44-27.8 50.5-32 3.6-2.3 12.1-7.7 19-12s16.1-10.1 20.5-12.9c9.2-5.8 9.8-6.2 18-11.3 7.6-4.7 24.4-15.5 31.3-20.1 2.9-1.9 6.7-4.3 8.5-5.2 1.8-1 9.3-5.6 16.7-10.4 7.4-4.7 18-11.3 23.5-14.7 14.3-8.9 23.5-14.7 32.3-20.5l7.7-5 .3-241 .2-240.9-4.5-2.5c-2.5-1.4-4.5-2.8-4.5-3.2 0-.5-.4-.8-1-.8-.5 0-6.8-3.6-14-8s-13.4-8-13.9-8-1.1-.3-1.3-.8c-.3-.8-15.5-10.2-16.5-10.2-.3 0-2.1-1.1-3.9-2.5-1.8-1.4-3.5-2.5-3.7-2.5-.9 0-19.2-11.5-19.5-12.2-.2-.4-.8-.8-1.2-.8-.5 0-14.8-8.4-31.8-18.8-16.9-10.3-32.1-19.5-33.8-20.5-1.6-.9-7.1-4.3-12.2-7.5-5.1-3.1-10.5-6.4-12-7.3-10.9-6.6-36.7-22.3-51.7-31.5-9.9-6.1-22.3-13.7-27.5-16.8-5.2-3.1-10.2-6.1-11-6.6-6.2-3.8-44.9-27.6-47.1-28.9-1.5-.9-7.9-4.7-14.1-8.5-21-12.7-29.9-18.1-35.1-21.2-2.9-1.7-10.1-6.1-16.1-9.8-6-3.6-11.4-6.6-12-6.6-.6 0-4.2 1.8-8 4z"/></svg>